<svg xmlns="http://www.w3.org/2000/svg" xmlns:xlink="http://www.w3.org/1999/xlink" version="1.1" width="1000" height="1000" viewBox="0 0 1000 1000" xml:space="preserve">
<desc>Created with Fabric.js 3.5.0</desc>
<defs>
</defs>
<rect x="0" y="0" width="100%" height="100%" fill="#ffffff"/>
<g transform="matrix(56.816 0 0 56.816 500.0001 500.0002)" id="44819">
<path style="stroke: none; stroke-width: 1; stroke-dasharray: none; stroke-linecap: butt; stroke-dashoffset: 0; stroke-linejoin: miter; stroke-miterlimit: 4; is-custom-font: none; font-file-url: none; fill: rgb(250,217,200); fill-rule: nonzero; opacity: 1;" vector-effect="non-scaling-stroke" transform=" translate(-7.9994, -8.001)" d="M 11.742 10.344 a 6.5 6.5 0 1 0 -1.397 1.398 h -0.001 c 0.03 0.04 0.062 0.078 0.098 0.115 l 3.85 3.85 a 1 1 0 0 0 1.415 -1.414 l -3.85 -3.85 a 1.007 1.007 0 0 0 -0.115 -0.1 z M 12 6.5 a 5.5 5.5 0 1 1 -11 0 a 5.5 5.5 0 0 1 11 0 z" stroke-linecap="round"/>
</g>
</svg>